# xmcd
#
# Track frame offsets: 
#        150
#        21380
#        39809
#        60662
#        77287
#        95089
#        113755
#        128729
#        151185
#        174818
#        190635
#        205714
#        230357
#        245463
#
# Disc length: 3496 seconds
#
# Revision: 0
# Processed by: cddbd v1.5.2PL0 Copyright (c) Steve Scherf et al.
# Submitted via: ExactAudioCopy v1.0b4
#
DISCID=9d0da60e
DTITLE=The Blues Band - Few Short Lines
DYEAR=2011
DGENRE=Blues
TTITLE0=Few Short Lines
TTITLE1=My Brother Was A Sailor
TTITLE2=Sway With Me
TTITLE3=You Are True
TTITLE4=Living With The Blues
TTITLE5=I Believe I'm In Love With You
TTITLE6=Pay It No Mind
TTITLE7=Statesboro Blues
TTITLE8=Suddenly I Like It
TTITLE9=My Toot Toot
TTITLE10=That's My Way
TTITLE11=Road
TTITLE12=It Take Love
TTITLE13=You Can Dance To The Blues
EXTD=
EXTT0=
EXTT1=
EXTT2=
EXTT3=
EXTT4=
EXTT5=
EXTT6=
EXTT7=
EXTT8=
EXTT9=
EXTT10=
EXTT11=
EXTT12=
EXTT13=
PLAYORDER=
